# xmcd
#
# Track frame offsets: 
#        150
#        21469
#        37383
#        60215
#        76724
#        89062
#        118526
#        134079
#        155568
#        182229
#        195819
#        216969
#        236144
#        253170
#        266733
#
# Disc length: 3982 seconds
#
# Revision: 2
# Processed by: cddbd v1.5.2PL0 Copyright (c) Steve Scherf et al.
# Submitted via: ExactAudioCopy v1.0b3
#
DISCID=dd0f8c0f
DTITLE=Peter Green - Peter Green Splinter Group - Supernatural
DYEAR=2007
DGENRE=Rock
TTITLE0=Heart of stone
TTITLE1=Peter Green - Peter Green Splinter Group - Otis Rush - I'm a ste
TTITLE1=ady rollin' man
TTITLE2=Big change is gonna come
TTITLE3=Homework
TTITLE4=When you got a good friend
TTITLE5=You'll be sorry someday
TTITLE6=Phonograph blues
TTITLE7=Love in vain blues
TTITLE8=Burglar
TTITLE9=Peter Green - Peter Green Splinter Group - Dr. John - From four 
TTITLE9=until late
TTITLE10=Hiding in shadows
TTITLE11=Peter Green - Peter Green Splinter Group - Paul Rodgers - Sweet
TTITLE11=home Chicago
TTITLE12=Hitch hiking woman
TTITLE13=Me and the devil blues
TTITLE14=Going down
EXTD=
EXTT0=
EXTT1=
EXTT2=
EXTT3=
EXTT4=
EXTT5=
EXTT6=
EXTT7=
EXTT8=
EXTT9=
EXTT10=
EXTT11=
EXTT12=
EXTT13=
EXTT14=
PLAYORDER=
